<svg width="24" height="24" viewBox="0 0 100 100" xmlns="http://www.w3.org/2000/svg">
  <defs>
    <linearGradient id="ainomicsGradient" x1="0%" y1="0%" x2="100%" y2="100%">
      <stop offset="0%" style="stop-color:#5CB3D9;stop-opacity:1" />
      <stop offset="50%" style="stop-color:#4A9FCC;stop-opacity:1" />
      <stop offset="100%" style="stop-color:#3B82BF;stop-opacity:1" />
    </linearGradient>
  </defs>
  
  <!-- Human figure with flowing curves -->
  <path d="M50 15 C60 15, 65 25, 65 35 C65 45, 55 50, 50 50 C45 50, 35 45, 35 35 C35 25, 40 15, 50 15 Z" fill="url(#ainomicsGradient)"/>
  
  <!-- Body with dynamic curves -->
  <path d="M35 40 C25 45, 20 60, 25 75 C30 85, 40 88, 50 85 C60 88, 70 85, 75 75 C80 60, 75 45, 65 40 C60 42, 55 45, 50 45 C45 45, 40 42, 35 40 Z" fill="url(#ainomicsGradient)"/>
  
  <!-- Arms/wings extending -->
  <path d="M25 55 C15 50, 10 45, 15 40 C20 38, 30 42, 35 50 C32 52, 28 54, 25 55 Z" fill="url(#ainomicsGradient)"/>
  <path d="M75 55 C85 50, 90 45, 85 40 C80 38, 70 42, 65 50 C68 52, 72 54, 75 55 Z" fill="url(#ainomicsGradient)"/>
  
  <!-- Central connecting element -->
  <circle cx="50" cy="35" r="8" fill="white"/>
</svg>